<?xml version="1.0" encoding="UTF-8"?>
<svg width="2063px" height="328px" viewBox="0 0 2063 328" version="1.1" xmlns="http://www.w3.org/2000/svg" xmlns:xlink="http://www.w3.org/1999/xlink">
    <!-- Generator: Sketch 48.2 (47327) - http://www.bohemiancoding.com/sketch -->
    <title>Bg-1</title>
    <desc>Created with Sketch.</desc>
    <defs></defs>
    <g id="BG" stroke="none" stroke-width="1" fill="none" fill-rule="evenodd" transform="translate(-122.000000, -177.000000)">
        <path d="M1456.10288,284 L1478.60788,200 L1619.86088,237.853222 L1610.25891,273.692608 L1644.36337,254 L1661.41812,283.543272 L1676.567,227 L1826.77999,267.254335 L1822.84369,281.946585 L1892.02481,242 L1905.96638,266.150437 L1980.6988,186 L2045.33832,246.284646 L2058.92711,242.129633 L2064.2293,259.474417 L2077.9343,217.289626 L2185,252.081602 L2150.21225,359.160294 L2144.49865,357.303607 L2144.49865,505 L224.731683,505 L224.731683,376.978364 L122,317.658999 L191.07677,198 L310.721245,267.085155 L300.95664,284 L315.402124,284 L310.721245,275.891495 L381.538797,235 L405.55153,276.596322 L427.680461,194 L587.435861,236.811526 L579.748457,265.504788 L659.995679,244 L666.712057,269.068905 L691.574882,226 L733.215651,250.044227 L729.67039,236.811526 L889.425789,194 L910.95356,274.352488 L932.287308,237.396867 L987.569162,269.317734 L1019.50299,214 L1075.37005,246.258778 L1093.92564,177 L1240.57543,216.299463 L1231.8214,248.973894 L1250.38197,244 L1255.77279,264.12123 L1279.06245,257 L1287.31618,284 L1289.19011,284 L1289.19011,220.587641 L1454.58107,220.587641 L1454.58107,284 L1456.10288,284 Z M2055.95003,284 L2056.26142,284 L2056.29577,283.894284 L2055.95003,284 Z" id="Bg-1" fill="#0e67d5"></path>
    </g>
</svg>