<svg xmlns="http://www.w3.org/2000/svg">
  <defs>
       <path id="a" d="M0 0h1920v447H0z"/> 
  </defs>
    <symbol id="bannerbg" viewBox="0 0 2063 328">
       <title> Bg-1 </title> <path d="M1334.103 107l22.505-84 141.253 37.853-9.602 35.84L1522.363 77l17.055 29.543L1554.567 50l150.213 40.254-3.936 14.693L1770.024 65l13.942 24.15L1858.7 9l64.64 60.285 13.588-4.155 5.302 17.344 13.705-42.184L2063 75.082l-34.788 107.078-5.713-1.856V328H102.732V199.978L0 140.66 69.077 21 188.72 90.085 178.957 107h14.445l-4.68-8.109L259.538 58l24.013 41.596L305.68 17l159.756 42.812-7.688 28.693L537.996 67l6.716 25.069L569.575 49l41.64 24.044-3.545-13.232L767.426 17l21.528 80.352 21.333-36.955 55.282 31.92L897.503 37l55.867 32.259L971.926 0l146.65 39.3-8.755 32.674L1128.382 67l5.39 20.121 23.29-7.121 8.254 27h1.874V43.588h165.391V107h1.522zm599.847 0h.311l.035-.106-.346.106z" fill="#0F73EF" fill-rule="evenodd"/> 
    </symbol>
    <symbol id="technologiesbg" viewBox="0 0 1920 447">
       <title> Rectangle 17 + Group 2 + Group 2 + Group 2 + Group 2 Mask </title>  <g fill="none" fill-rule="evenodd"> <mask id="b" fill="#fff"> <use xlink:href="#a"/> </mask> <path fill="#0E67D5" mask="url(#b)" d="M0 329h1920v405H0z"/> <g mask="url(#b)"> <path fill="#0E67D5" d="M117.5 214.165l23.335 23.335-23.335 23.335L94.165 237.5z"/> <path stroke="#0E67D5" opacity=".3" stroke-linecap="square" d="M120.5 236.5l85-33-85-24.5-19.5 8 18 49.5L47 251l14 15 6-47-24-7 19-21 37-3 11-34 32-16-20 39 81-19 2.5 42 82.5-7-34 35-37 34-51.5-11 40-45 10.5 53 97-4-24-60 3-34-33 6 26 25 19 2 55-26-3-49-88-10-67 14-57 14-43-54 64.5 6-22.5 51 57 56 61-31 7-53-5-36 56-34 40-5 6 32-46-25 36 74-61 41 67 10 51-61 5 71-53-8 57 49-2-39 20-29.5 15 74.5-30-5 62-30-8-52-37 12.5L461 65l16 71-68-29-43-37 99-4 71 69-14 46-34 10 22 35 24-2-14-45 45-121-49-21-52-4-1 30 55-27 127 6 32-5-43 63-68-41 208-15-50-37 24 100-109-7 235-21-100-31 199 35-28 20-188-6-80-61 47-29"/> <path fill="#0E67D5" d="M184.333 182h39.17v39.17h-39.17zM-12.659 196L107 265.085 37.915 384.744l-119.659-69.085zM197.826 242l40.892 70.826-70.826 40.891L127 282.891z"/> <path fill="#0E67D5" d="M403.748 236.812l-42.812 159.775-159.775-42.812L243.973 194z"/> <path fill="#0E67D5" d="M476.317 244l42.811 159.775-159.775 42.812-42.811-159.775z"/> <path fill="#0E67D5" d="M575.277 264.9l-38.9 67.377-67.377-38.9L507.9 226zM413.836 170l11.84 6.836-6.836 11.84L407 181.84zM200.314 119.83l4.01 2.315-2.315 4.009-4.009-2.315zM252.12 222.873l7.136 4.12-4.12 7.136-7.136-4.12z"/> <path fill="#0E67D5" d="M252.12 222.873l7.136 4.12-4.12 7.136-7.136-4.12zM258.12 161l7.136 4.12-4.12 7.136-7.136-4.12z"/> <path fill="#0E67D5" opacity=".7" d="M466.317 56.719l3.88 14.483-14.482 3.88-3.88-14.482z"/> <path fill="#0E67D5" d="M414.137 103.064l2.164 8.073-8.074 2.163-2.163-8.073z"/> <path fill="#0E67D5" opacity=".8" d="M472.622 120l28.135 16.244-16.244 28.136-28.135-16.244z"/> <path fill="#0E67D5" d="M429.4 204l6.27 23.4-23.4 6.27-6.27-23.4zM434.776 148.776h7.37v7.37h-7.37zM517 176h8.37v8.37H517zM533.185 124l14.177 8.185-8.185 14.177L525 138.177zM533.185 215l14.177 8.185-8.185 14.177L525 229.177zM484.193 184l8.993 5.193-5.192 8.994-8.994-5.193zM507.307 219l9.192 5.308-5.307 9.192-9.192-5.307zM340 159.012L369.902 151l8.012 29.902-29.902 8.012zM286.278 184l9.278 9.277-9.278 9.278-9.278-9.278zM295.197 157.359v7.838h-7.838v-7.838z"/> <path fill="#0E67D5" opacity=".8" d="M274.838 102v13.838H261V102z"/> <path fill="#0E67D5" opacity=".7" d="M320.458 37.178l4.203 7.28-7.28 4.204-4.204-7.281zM359.605 33.52l2.359 4.085-4.085 2.358-2.359-4.085zM366.085 66l2.359 4.085-4.085 2.358L362 68.358z"/> <path fill="#0E67D5" opacity=".3" d="M462.865 30.174l4.404 1.69-1.69 4.404-4.404-1.69zM102.022 49.257l5.127 1.765-1.765 5.127-5.127-1.765z"/> <path fill="#0E67D5" opacity=".7" d="M164.733 85.934l5.224 1.799-1.799 5.224-5.224-1.799z"/> <path fill="#0E67D5" opacity=".3" d="M170.12 46.24l1.664 2.88-2.882 1.664-1.663-2.881z"/> <path fill="#0E67D5" opacity=".7" d="M111.273 146.808l5.465 9.466-9.466 5.465-5.465-9.466z"/> <path fill="#0E67D5" d="M204.941 152l5.465 9.466-9.465 5.465-5.465-9.466zM98 184h6.93v6.93H98zM123.891 170.41l6.63 11.482-11.483 6.63-6.63-11.483zM451.622 214l14.934 8.622-8.622 14.934L443 228.934zM313.934 244l8.622 14.934-14.934 8.622L299 252.622z"/> <path fill="#0E67D5" opacity=".7" d="M264.454 72l3.727 6.455-6.455 3.726L258 75.727zM138.455 134.527l7.2 1.929-1.93 7.199-7.199-1.93zM96.822 75.665l10.533 2.823-2.822 10.533L94 86.2z"/> <path fill="#0E67D5" d="M303.678 190.645l3.033 3.033-3.033 3.034-3.034-3.034zM61.033 185.034l6.017 6.016-6.017 6.017-6.017-6.017zM65.43 216.573l4.03.856-.856 4.031-4.031-.856zM41.734 244l12.861 2.734-2.734 12.861L39 256.861zM38.734 204l12.861 2.734-2.734 12.861L36 216.861z"/> <path fill="#0E67D5" opacity=".7" d="M251.382-.921l6.135 1.304-1.304 6.135-6.135-1.304z"/> <path fill="#0E67D5" opacity=".3" d="M514.978 34.038l4.424.94-.94 4.424-4.424-.94z"/> <path fill="#0E67D5" opacity=".7" d="M561.89 56.128l5.502-1.474 1.474 5.502-5.502 1.474zM640.598 41.446l4.932-2.848 2.848 4.932-4.932 2.848zM730 45.848L734.931 43l2.848 4.933-4.933 2.848zM673.206 36.171l3.403-1.965 1.965 3.404-3.403 1.965z"/> <path fill="#0E67D5" opacity=".3" d="M722 8.65V5h3.65v3.65z"/> <path fill="#0E67D5" opacity=".7" d="M772 48.65V45h3.65v3.65z"/> <path fill="#0E67D5" d="M870.59 79.115l.945-3.525 3.525.944-.944 3.526zM972.157 84.318l-1.825-3.161 3.16-1.825 1.826 3.16zM61.017 261l6.016 6.016-6.016 6.017L55 267.016zM217.017 256l6.016 6.016-6.016 6.017-6.017-6.017zM166.016 241.017l10.509 10.508-10.509 10.509-10.508-10.509zM356.718 117.326l.973 3.392-3.393.973-.972-3.392z"/> </g> <g mask="url(#b)"> <path fill="#0E67D5" d="M713.5 250.165l23.335 23.335-23.335 23.335-23.335-23.335z"/> <path stroke="#0E67D5" opacity=".15" stroke-linecap="square" d="M716.5 272.5l85-33-85-24.5-19.5 8 18 49.5-72 14.5 14 15 6-47-24-7 19-21 37-3 11-34 32-16-20 39 81-19 2.5 42 82.5-7-34 35-37 34-51.5-11 40-45 10.5 53 97-4-24-60 3-34-33 6 26 25 19 2 55-26-3-49-88-10-67 14-57 14-43-54 64.5 6-22.5 51 57 56 61-31 7-53-5-36 56-34 40-5 6 32-46-25 36 74-61 41 67 10 51-61 5 71-53-8 57 49-2-39 20-29.5 15 74.5-30-5 62-30-8-52-37 12.5 20-86.5 16 71-68-29-43-37 99-4 71 69-14 46-34 10 22 35 24-2-14-45 45-121-49-21-52-4-1 30 55-27 127 6 32-5-43 63-68-41 208-15-50-37 24 100-109-7 235-21-100-31 199 35-28 20-188-6-80-61 47-29"/> <path fill="#0E67D5" d="M780.333 218h39.17v39.17h-39.17zM583.341 232L703 301.085l-69.085 119.659-119.659-69.085zM793.826 278l40.892 70.826-70.826 40.891L723 318.891z"/> <path fill="#0E67D5" d="M999.748 272.812l-42.812 159.775-159.775-42.812L839.973 230z"/> <path fill="#0E67D5" d="M1072.317 280l42.811 159.775-159.775 42.812-42.811-159.775z"/> <path fill="#0E67D5" d="M1171.277 300.9l-38.9 67.377-67.377-38.9L1103.9 262zM1009.836 206l11.84 6.836-6.836 11.84-11.84-6.836zM796.314 155.83l4.01 2.315-2.315 4.009-4.009-2.315zM848.12 258.873l7.136 4.12-4.12 7.136-7.136-4.12z"/> <path fill="#0E67D5" d="M848.12 258.873l7.136 4.12-4.12 7.136-7.136-4.12zM854.12 197l7.136 4.12-4.12 7.136-7.136-4.12z"/> <path fill="#0E67D5" opacity=".7" d="M1062.317 92.719l3.88 14.483-14.482 3.88-3.88-14.482z"/> <path fill="#0E67D5" d="M1010.137 139.064l2.164 8.073-8.074 2.163-2.163-8.073z"/> <path fill="#0E67D5" opacity=".8" d="M1068.622 156l28.135 16.244-16.244 28.136-28.135-16.244z"/> <path fill="#0E67D5" d="M1025.4 240l6.27 23.4-23.4 6.27-6.27-23.4zM1030.776 184.776h7.37v7.37h-7.37zM1113 212h8.37v8.37H1113zM1129.185 160l14.177 8.185-8.185 14.177-14.177-8.185zM1129.185 251l14.177 8.185-8.185 14.177-14.177-8.185zM1080.193 220l8.993 5.193-5.192 8.994-8.994-5.193zM1103.307 255l9.192 5.308-5.307 9.192-9.192-5.307zM936 195.012L965.902 187l8.012 29.902-29.902 8.012zM882.278 220l9.278 9.277-9.278 9.278-9.278-9.278zM891.197 193.359v7.838h-7.838v-7.838z"/> <path fill="#0E67D5" opacity=".8" d="M870.838 138v13.838H857V138z"/> <path fill="#0E67D5" opacity=".7" d="M916.458 73.178l4.203 7.28-7.28 4.204-4.204-7.281zM955.605 69.52l2.359 4.085-4.085 2.358-2.359-4.085zM962.085 102l2.359 4.085-4.085 2.358-2.359-4.085z"/> <path fill="#0E67D5" opacity=".3" d="M1058.865 66.174l4.404 1.69-1.69 4.404-4.404-1.69zM993.69 3l4.404 1.691-1.69 4.404L992 7.405zM698.022 85.257l5.127 1.765-1.765 5.127-5.127-1.765z"/> <path fill="#0E67D5" opacity=".7" d="M760.733 121.934l5.224 1.799-1.799 5.224-5.224-1.799z"/> <path fill="#0E67D5" opacity=".3" d="M766.12 82.24l1.664 2.88-2.882 1.664-1.663-2.881z"/> <path fill="#0E67D5" opacity=".7" d="M707.273 182.808l5.465 9.466-9.466 5.465-5.465-9.466z"/> <path fill="#0E67D5" d="M800.941 188l5.465 9.466-9.465 5.465-5.465-9.466zM694 220h6.93v6.93H694zM719.891 206.41l6.63 11.482-11.483 6.63-6.63-11.483zM1047.622 250l14.934 8.622-8.622 14.934-14.934-8.622zM909.934 280l8.622 14.934-14.934 8.622L895 288.622z"/> <path fill="#0E67D5" opacity=".7" d="M860.454 108l3.727 6.455-6.455 3.726-3.726-6.454zM734.455 170.527l7.2 1.929-1.93 7.199-7.199-1.93zM692.822 111.665l10.533 2.823-2.822 10.533L690 122.2z"/> <path fill="#0E67D5" d="M899.678 226.645l3.033 3.033-3.033 3.034-3.034-3.034zM657.033 221.034l6.017 6.016-6.017 6.017-6.017-6.017zM661.43 252.573l4.03.856-.856 4.031-4.031-.856zM637.734 280l12.861 2.734-2.734 12.861L635 292.861zM634.734 240l12.861 2.734-2.734 12.861L632 252.861z"/> <path fill="#0E67D5" opacity=".7" d="M847.382 35.079l6.135 1.304-1.304 6.135-6.135-1.304z"/> <path fill="#0E67D5" opacity=".3" d="M1110.978 70.038l4.424.94-.94 4.424-4.424-.94zM1099.369 30.66l3.335.709-.709 3.335-3.335-.709z"/> <path fill="#0E67D5" opacity=".7" d="M1157.89 92.128l5.502-1.474 1.474 5.502-5.502 1.474zM1236.598 77.446l4.932-2.848 2.848 4.932-4.932 2.848zM1326 81.848l4.932-2.848 2.848 4.933-4.933 2.848zM1269.206 72.171l3.403-1.965 1.965 3.404-3.403 1.965z"/> <path fill="#0E67D5" opacity=".3" d="M1318 44.65V41h3.65v3.65z"/> <path fill="#0E67D5" opacity=".7" d="M1368 84.65V81h3.65v3.65z"/> <path fill="#0E67D5" d="M1466.59 115.115l.945-3.525 3.525.944-.944 3.526zM1568.157 120.318l-1.825-3.161 3.16-1.825 1.826 3.16zM657.017 297l6.016 6.016-6.016 6.017-6.017-6.017zM813.017 292l6.016 6.016-6.016 6.017-6.017-6.017zM762.016 277.017l10.509 10.508-10.509 10.509-10.508-10.509zM952.718 153.326l.973 3.392-3.393.973-.972-3.392z"/> </g> <g mask="url(#b)"> <path fill="#0E67D5" d="M1588.5 275.165l-23.335 23.335 23.335 23.335 23.335-23.335z"/> <path stroke="#0E67D5" opacity=".3" stroke-linecap="square" d="M1585.5 297.5l-85-33 85-24.5 19.5 8-18 49.5 72 14.5-14 15-6-47 24-7-19-21-37-3-11-34-32-16 20 39-81-19-2.5 42-82.5-7 34 35 37 34 51.5-11-40-45-10.5 53-97-4 24-60-3-34 33 6-26 25-19 2-55-26 3-49 88-10 67 14 57 14 43-54-64.5 6 22.5 51-57 56-61-31-7-53 5-36-56-34-40-5-6 32 46-25-36 74 61 41-67 10-51-61-5 71 53-8-57 49 2-39-20-29.5-15 74.5 30-5-62-30 8-52 37 12.5-20-86.5-16 71 68-29 43-37-99-4-71 69 14 46 34 10-22 35-24-2 14-45-45-121 49-21 52-4 1 30-55-27-127 6-32-5 43 63 68-41-208-15 50-37-24 100 109-7-235-21 100-31-199 35 28 20 188-6 80-61-47-29"/> <path fill="#0E67D5" d="M1521.667 243h-39.17v39.17h39.17zM1718.659 257L1599 326.085l69.085 119.659 119.659-69.085zM1508.174 303l-40.892 70.826 70.826 40.891L1579 343.891z"/> <path fill="#0E67D5" d="M1302.252 297.812l42.812 159.775 159.775-42.812L1462.027 255z"/> <path fill="#0E67D5" d="M1229.683 305l-42.811 159.775 159.775 42.812 42.811-159.775z"/> <path fill="#0E67D5" d="M1130.723 325.9l38.9 67.377 67.377-38.9L1198.1 287zM1292.164 231l-11.84 6.836 6.836 11.84 11.84-6.836zM1505.686 180.83l-4.01 2.315 2.315 4.009 4.009-2.315zM1453.88 283.873l-7.136 4.12 4.12 7.136 7.136-4.12z"/> <path fill="#0E67D5" d="M1453.88 283.873l-7.136 4.12 4.12 7.136 7.136-4.12zM1447.88 222l-7.136 4.12 4.12 7.136 7.136-4.12z"/> <path fill="#0E67D5" opacity=".7" d="M1239.683 117.719l-3.88 14.483 14.482 3.88 3.88-14.482z"/> <path fill="#0E67D5" d="M1291.863 164.064l-2.164 8.073 8.074 2.163 2.163-8.073z"/> <path fill="#0E67D5" opacity=".8" d="M1233.378 181l-28.135 16.244 16.244 28.136 28.135-16.244z"/> <path fill="#0E67D5" d="M1276.6 265l-6.27 23.4 23.4 6.27 6.27-23.4zM1271.224 209.776h-7.37v7.37h7.37zM1189 237h-8.37v8.37h8.37zM1172.815 185l-14.177 8.185 8.185 14.177 14.177-8.185zM1172.815 276l-14.177 8.185 8.185 14.177 14.177-8.185zM1221.807 245l-8.993 5.193 5.192 8.994 8.994-5.193zM1198.693 280l-9.192 5.308 5.307 9.192 9.192-5.307zM1366 220.012L1336.098 212l-8.012 29.902 29.902 8.012zM1419.722 245l-9.278 9.277 9.278 9.278 9.278-9.278zM1410.803 218.359v7.838h7.838v-7.838z"/> <path fill="#0E67D5" opacity=".8" d="M1431.162 163v13.838H1445V163z"/> <path fill="#0E67D5" opacity=".7" d="M1385.542 98.178l-4.203 7.28 7.28 4.204 4.204-7.281zM1346.395 94.52l-2.359 4.085 4.085 2.358 2.359-4.085zM1339.915 127l-2.359 4.085 4.085 2.358 2.359-4.085z"/> <path fill="#0E67D5" opacity=".3" d="M1243.135 91.174l-4.404 1.69 1.69 4.404 4.404-1.69zM1308.31 28l-4.404 1.691 1.69 4.404 4.404-1.69zM1498.305 9.648l-2.711 4.695 4.696 2.711 2.71-4.695zM1603.978 110.257l-5.127 1.765 1.765 5.127 5.127-1.765z"/> <path fill="#0E67D5" opacity=".7" d="M1541.267 146.934l-5.224 1.799 1.799 5.224 5.224-1.799z"/> <path fill="#0E67D5" opacity=".3" d="M1535.88 107.24l-1.664 2.88 2.882 1.664 1.663-2.881z"/> <path fill="#0E67D5" opacity=".7" d="M1594.727 207.808l-5.465 9.466 9.466 5.465 5.465-9.466z"/> <path fill="#0E67D5" d="M1501.059 213l-5.465 9.466 9.465 5.465 5.465-9.466zM1608 245h-6.93v6.93h6.93zM1582.109 231.41l-6.63 11.482 11.483 6.63 6.63-11.483zM1254.378 275l-14.934 8.622 8.622 14.934 14.934-8.622zM1392.066 305l-8.622 14.934 14.934 8.622 8.622-14.934z"/> <path fill="#0E67D5" opacity=".7" d="M1441.546 133l-3.727 6.455 6.455 3.726 3.726-6.454zM1567.545 195.527l-7.2 1.929 1.93 7.199 7.199-1.93zM1609.178 136.665l-10.533 2.823 2.822 10.533L1612 147.2z"/> <path fill="#0E67D5" d="M1402.322 251.645l-3.033 3.033 3.033 3.034 3.034-3.034zM1644.967 246.034l-6.017 6.016 6.017 6.017 6.017-6.017zM1640.57 277.573l-4.03.856.856 4.031 4.031-.856zM1664.266 305l-12.861 2.734 2.734 12.861 12.861-2.734zM1667.266 265l-12.861 2.734 2.734 12.861 12.861-2.734z"/> <path fill="#0E67D5" opacity=".7" d="M1454.618 60.079l-6.135 1.304 1.304 6.135 6.135-1.304z"/> <path fill="#0E67D5" opacity=".3" d="M1191.022 95.038l-4.424.94.94 4.424 4.424-.94zM1202.631 55.66l-3.335.709.709 3.335 3.335-.709z"/> <path fill="#0E67D5" opacity=".7" d="M1144.11 117.128l-5.502-1.474-1.474 5.502 5.502 1.474zM1065.402 102.446l-4.932-2.848-2.848 4.932 4.932 2.848zM976 106.848L971.069 104l-2.848 4.933 4.933 2.848zM1032.794 97.171l-3.403-1.965-1.965 3.404 3.403 1.965z"/> <path fill="#0E67D5" opacity=".3" d="M984 69.65V66h-3.65v3.65z"/> <path fill="#0E67D5" opacity=".7" d="M934 109.65V106h-3.65v3.65z"/> <path fill="#0E67D5" d="M835.41 140.115l-.945-3.525-3.525.944.944 3.526zM733.843 145.318l1.825-3.161-3.16-1.825-1.826 3.16zM1644.983 322l-6.016 6.016 6.016 6.017 6.017-6.017zM1488.983 317l-6.016 6.016 6.016 6.017 6.017-6.017zM1539.984 302.017l-10.509 10.508 10.509 10.509 10.508-10.509zM1349.282 178.326l-.973 3.392 3.393.973.972-3.392z"/> </g> <g mask="url(#b)"> <path fill="#0E67D5" d="M1803.5 250.165l23.335 23.335-23.335 23.335-23.335-23.335z"/> <path stroke="#0E67D5" opacity=".3" stroke-linecap="square" d="M1806.5 272.5l85-33-85-24.5-19.5 8 18 49.5-72 14.5 14 15 6-47-24-7 19-21 37-3 11-34 32-16-20 39 81-19 2.5 42 82.5-7-34 35-37 34-51.5-11 40-45 10.5 53 97-4-24-60 3-34-33 6 26 25 19 2 55-26-3-49-88-10-67 14-57 14-43-54 64.5 6-22.5 51 57 56 61-31 7-53-5-36 56-34 40-5 6 32-46-25 36 74-61 41 67 10 51-61 5 71-53-8 57 49-2-39 20-29.5 15 74.5-30-5 62-30-8-52-37 12.5 20-86.5 16 71-68-29-43-37 99-4 71 69-14 46-34 10 22 35 24-2-14-45 45-121-49-21-52-4-1 30 55-27 127 6 32-5-43 63-68-41 208-15-50-37 24 100-109-7 235-21-100-31 199 35-28 20-188-6-80-61 47-29"/> <path fill="#0E67D5" d="M1870.333 218h39.17v39.17h-39.17zM1673.341 232L1793 301.085l-69.085 119.659-119.659-69.085zM1883.826 278l40.892 70.826-70.826 40.891L1813 318.891z"/> <path fill="#0E67D5" d="M2089.748 272.812l-42.812 159.775-159.775-42.812L1929.973 230zM1886.314 155.83l4.01 2.315-2.315 4.009-4.009-2.315z"/> <path fill="#0E67D5" opacity=".3" d="M1788.022 85.257l5.127 1.765-1.765 5.127-5.127-1.765z"/> <path fill="#0E67D5" opacity=".7" d="M1850.733 121.934l5.224 1.799-1.799 5.224-5.224-1.799z"/> <path fill="#0E67D5" opacity=".3" d="M1856.12 82.24l1.664 2.88-2.882 1.664-1.663-2.881z"/> <path fill="#0E67D5" opacity=".7" d="M1797.273 182.808l5.465 9.466-9.466 5.465-5.465-9.466z"/> <path fill="#0E67D5" d="M1890.941 188l5.465 9.466-9.465 5.465-5.465-9.466zM1784 220h6.93v6.93H1784zM1809.891 206.41l6.63 11.482-11.483 6.63-6.63-11.483z"/> <path fill="#0E67D5" opacity=".7" d="M1824.455 170.527l7.2 1.929-1.93 7.199-7.199-1.93zM1782.822 111.665l10.533 2.823-2.822 10.533L1780 122.2z"/> <path fill="#0E67D5" d="M1747.033 221.034l6.017 6.016-6.017 6.017-6.017-6.017zM1751.43 252.573l4.03.856-.856 4.031-4.031-.856zM1727.734 280l12.861 2.734-2.734 12.861-12.861-2.734zM1724.734 240l12.861 2.734-2.734 12.861-12.861-2.734zM1747.017 297l6.016 6.016-6.016 6.017-6.017-6.017zM1903.017 292l6.016 6.016-6.016 6.017-6.017-6.017zM1852.016 277.017l10.509 10.508-10.509 10.509-10.508-10.509z"/> </g> </g> 
    </symbol></svg>
<svg xmlns="http://www.w3.org/2000/svg"></svg>