<?xml version="1.0" encoding="UTF-8"?>
<svg width="1920px" height="447px" viewBox="0 0 1920 447" version="1.1" xmlns="http://www.w3.org/2000/svg" xmlns:xlink="http://www.w3.org/1999/xlink">
    <!-- Generator: Sketch 48.2 (47327) - http://www.bohemiancoding.com/sketch -->
    <title>Rectangle 17 + Group 2 + Group 2 + Group 2 + Group 2 Mask</title>
    <desc>Created with Sketch.</desc>
    <defs>
        <rect id="path-1" x="0" y="0" width="1920" height="447"></rect>
    </defs>
    <g id="BG" stroke="none" stroke-width="1" fill="none" fill-rule="evenodd" transform="translate(-188.000000, -1038.000000)">
        <g id="Rectangle-17-+-Group-2-+-Group-2-+-Group-2-+-Group-2-Mask" transform="translate(188.000000, 1038.000000)">



            <mask id="mask-2" fill="white">
                <use xlink:href="#path-1"></use>
            </mask>
            <use id="Mask" fill="#0f73ef" opacity="0" xlink:href="#path-1"></use>
            <rect id="Rectangle-17" fill="#0f73ef" mask="url(#mask-2)" x="0" y="329" width="1920" height="405"></rect>
            <g id="Group-2" mask="url(#mask-2)">
                <g transform="translate(-82.000000, -81.000000)">
                    <rect id="Rectangle-4" stroke="none" fill="#0f73ef" fill-rule="evenodd" transform="translate(199.500000, 318.500000) rotate(-315.000000) translate(-199.500000, -318.500000) " x="183" y="302" width="33" height="33"></rect>
                    <polyline id="Line" stroke="#0f73ef" stroke-width="1" fill="none" opacity="0.300000012" stroke-linecap="square" points="202.5 317.5 287.5 284.5 202.5 260 183 268 201 317.5 129 332 143 347 149 300 125 293 144 272 181 269 192 235 224 219 204 258 285 239 287.5 281 370 274 336 309 299 343 247.5 332 287.5 287 298 340 395 336 371 276 374 242 341 248 367 273 386 275 441 249 438 200 350 190 283 204 226 218 183 164 247.5 170 225 221 282 277 343 246 350 193 345 157 401 123 441 118 447 150 401 125 437 199 376 240 443 250 494 189 499 260 446 252 503 301 501 262 521 232.5 536 307 506 302 568 272 560 220 523 232.5 543 146 559 217 491 188 448 151 547 147 618 216 604 262 570 272 592 307 616 305 602 260 647 139 598 118 546 114 545 144 600 117 727 123 759 118 716 181 648 140 856 125 806 88 830 188 721 181 956 160 856 129 1055 164 1027 184 839 178 759 117 806 88"></polyline>
                    <rect id="Rectangle-4" stroke="none" fill="#0f73ef" fill-rule="evenodd" x="266.332738" y="263" width="39.1703102" height="39.1703102"></rect>
                    <rect id="Rectangle-4" stroke="none" fill="#0f73ef" fill-rule="evenodd" transform="translate(94.628073, 371.372077) rotate(-330.000000) translate(-94.628073, -371.372077) " x="25.542918" y="302.286922" width="138.17031" height="138.17031"></rect>
                    <rect id="Rectangle-4" stroke="none" fill="#0f73ef" fill-rule="evenodd" transform="translate(264.858822, 378.858822) rotate(-300.000000) translate(-264.858822, -378.858822) " x="223.967326" y="337.967326" width="81.7829909" height="81.7829909"></rect>
                    <rect id="Rectangle-4" stroke="none" fill="#0f73ef" fill-rule="evenodd" transform="translate(384.455046, 376.293159) rotate(-255.000000) translate(-384.455046, -376.293159) " x="301.749528" y="293.587641" width="165.411036" height="165.411036"></rect>
                    <rect id="Rectangle-4" stroke="none" fill="#0f73ef" fill-rule="evenodd" transform="translate(499.835199, 426.293159) rotate(-285.000000) translate(-499.835199, -426.293159) " x="417.129681" y="343.587641" width="165.411036" height="165.411036"></rect>
                    <rect id="Rectangle-4" stroke="none" fill="#0f73ef" fill-rule="evenodd" transform="translate(604.138208, 360.138208) rotate(-240.000000) translate(-604.138208, -360.138208) " x="565.23834" y="321.23834" width="77.7997365" height="77.7997365"></rect>
                    <rect id="Rectangle-4" stroke="none" fill="#0f73ef" fill-rule="evenodd" transform="translate(498.337858, 260.337858) rotate(-330.000000) translate(-498.337858, -260.337858) " x="491.502071" y="253.502071" width="13.6715729" height="13.6715729"></rect>
                    <rect id="Rectangle-4" stroke="none" fill="#0f73ef" fill-rule="evenodd" transform="translate(283.161887, 203.992704) rotate(-330.000000) translate(-283.161887, -203.992704) " x="280.847225" y="201.678042" width="4.629324" height="4.629324"></rect>
                    <rect id="Rectangle-4" stroke="none" fill="#0f73ef" fill-rule="evenodd" transform="translate(335.627985, 309.501098) rotate(-330.000000) translate(-335.627985, -309.501098) " x="331.508014" y="305.381127" width="8.2399422" height="8.2399422"></rect>
                    <rect id="Rectangle-4" stroke="none" fill="#0f73ef" fill-rule="evenodd" transform="translate(335.627985, 309.501098) rotate(-330.000000) translate(-335.627985, -309.501098) " x="331.508014" y="305.381127" width="8.2399422" height="8.2399422"></rect>
                    <rect id="Rectangle-4" stroke="none" fill="#0f73ef" fill-rule="evenodd" transform="translate(341.627985, 247.627985) rotate(-330.000000) translate(-341.627985, -247.627985) " x="337.508014" y="243.508014" width="8.2399422" height="8.2399422"></rect>
                    <rect id="Rectangle-4" stroke="none" fill="#0f73ef" fill-rule="evenodd" opacity="0.699999988" transform="translate(543.016060, 146.900982) rotate(-285.000000) translate(-543.016060, -146.900982) " x="535.518841" y="139.403764" width="14.9944365" height="14.9944365"></rect>
                    <rect id="Rectangle-4" stroke="none" fill="#0f73ef" fill-rule="evenodd" transform="translate(493.182180, 189.182180) rotate(-285.000000) translate(-493.182180, -189.182180) " x="489.00313" y="185.00313" width="8.35809824" height="8.35809824"></rect>
                    <rect id="Rectangle-4" stroke="none" fill="#0f73ef" fill-rule="evenodd" opacity="0.800000012" transform="translate(560.567671, 223.189433) rotate(-330.000000) translate(-560.567671, -223.189433) " x="544.323878" y="206.945641" width="32.4875854" height="32.4875854"></rect>
                    <rect id="Rectangle-4" stroke="none" fill="#0f73ef" fill-rule="evenodd" transform="translate(502.835199, 299.835199) rotate(-285.000000) translate(-502.835199, -299.835199) " x="490.72231" y="287.72231" width="24.2257787" height="24.2257787"></rect>
                    <rect id="Rectangle-4" stroke="none" fill="#0f73ef" fill-rule="evenodd" x="516.776348" y="229.776348" width="7.37011201" height="7.37011201"></rect>
                    <rect id="Rectangle-4" stroke="none" fill="#0f73ef" fill-rule="evenodd" x="599" y="257" width="8.37011201" height="8.37011201"></rect>
                    <rect id="Rectangle-4" stroke="none" fill="#0f73ef" fill-rule="evenodd" transform="translate(618.180994, 216.180994) rotate(-330.000000) translate(-618.180994, -216.180994) " x="609.995938" y="207.995938" width="16.370112" height="16.370112"></rect>
                    <rect id="Rectangle-4" stroke="none" fill="#0f73ef" fill-rule="evenodd" transform="translate(618.180994, 307.180994) rotate(-330.000000) translate(-618.180994, -307.180994) " x="609.995938" y="298.995938" width="16.370112" height="16.370112"></rect>
                    <rect id="Rectangle-4" stroke="none" fill="#0f73ef" fill-rule="evenodd" transform="translate(568.093278, 272.093278) rotate(-330.000000) translate(-568.093278, -272.093278) " x="562.900638" y="266.900638" width="10.3852792" height="10.3852792"></rect>
                    <rect id="Rectangle-4" stroke="none" fill="#0f73ef" fill-rule="evenodd" transform="translate(591.249693, 307.249693) rotate(-330.000000) translate(-591.249693, -307.249693) " x="585.942549" y="301.942549" width="10.6142878" height="10.6142878"></rect>
                    <rect id="Rectangle-4" stroke="none" fill="#0f73ef" fill-rule="evenodd" transform="translate(440.956822, 250.956822) rotate(-15.000000) translate(-440.956822, -250.956822) " x="425.478642" y="235.478642" width="30.9563605" height="30.9563605"></rect>
                    <rect id="Rectangle-4" stroke="none" fill="#0f73ef" fill-rule="evenodd" transform="translate(368.277927, 274.277927) rotate(-315.000000) translate(-368.277927, -274.277927) " x="361.717442" y="267.717442" width="13.1209699" height="13.1209699"></rect>
                    <rect id="Rectangle-4" stroke="none" fill="#0f73ef" fill-rule="evenodd" transform="translate(373.277927, 242.277927) rotate(-270.000000) translate(-373.277927, -242.277927) " x="369.358721" y="238.358721" width="7.83841169" height="7.83841169"></rect>
                    <rect id="Rectangle-4" stroke="none" fill="#0f73ef" fill-rule="evenodd" opacity="0.800000012" transform="translate(349.919206, 189.919206) rotate(-270.000000) translate(-349.919206, -189.919206) " x="343" y="183" width="13.8384117" height="13.8384117"></rect>
                    <rect id="Rectangle-4" stroke="none" fill="#0f73ef" fill-rule="evenodd" opacity="0.699999988" transform="translate(400.919206, 123.919206) rotate(-300.000000) translate(-400.919206, -123.919206) " x="396.715748" y="119.715748" width="8.40691519" height="8.40691519"></rect>
                    <rect id="Rectangle-4" stroke="none" fill="#0f73ef" fill-rule="evenodd" opacity="0.699999988" transform="translate(440.742030, 117.742030) rotate(-300.000000) translate(-440.742030, -117.742030) " x="438.383485" y="115.383485" width="4.71708923" height="4.71708923"></rect>
                    <rect id="Rectangle-4" stroke="none" fill="#0f73ef" fill-rule="evenodd" opacity="0.699999988" transform="translate(447.221832, 150.221832) rotate(-300.000000) translate(-447.221832, -150.221832) " x="444.863287" y="147.863287" width="4.71708923" height="4.71708923"></rect>
                    <rect id="Rectangle-4" stroke="none" fill="#0f73ef" fill-rule="evenodd" opacity="0.300000012" transform="translate(546.221832, 114.221832) rotate(-339.000000) translate(-546.221832, -114.221832) " x="543.863287" y="111.863287" width="4.71708923" height="4.71708923"></rect>
                    <rect id="Rectangle-4" stroke="none" fill="#0f73ef" fill-rule="evenodd" opacity="0.300000012" transform="translate(185.702982, 133.702982) rotate(-341.000000) translate(-185.702982, -133.702982) " x="182.992211" y="130.992211" width="5.42154206" height="5.42154206"></rect>
                    <rect id="Rectangle-4" stroke="none" fill="#0f73ef" fill-rule="evenodd" opacity="0.699999988" transform="translate(248.445625, 170.445625) rotate(-341.000000) translate(-248.445625, -170.445625) " x="245.68313" y="167.68313" width="5.52499036" height="5.52499036"></rect>
                    <rect id="Rectangle-4" stroke="none" fill="#0f73ef" fill-rule="evenodd" opacity="0.300000012" transform="translate(251.511371, 129.511371) rotate(-300.000000) translate(-251.511371, -129.511371) " x="249.847838" y="127.847838" width="3.32706631" height="3.32706631"></rect>
                    <rect id="Rectangle-4" stroke="none" fill="#0f73ef" fill-rule="evenodd" opacity="0.699999988" transform="translate(191.272429, 235.272429) rotate(-300.000000) translate(-191.272429, -235.272429) " x="185.807507" y="229.807507" width="10.9298428" height="10.9298428"></rect>
                    <rect id="Rectangle-4" stroke="none" fill="#0f73ef" fill-rule="evenodd" transform="translate(284.940743, 240.465221) rotate(-300.000000) translate(-284.940743, -240.465221) " x="279.475821" y="235.0003" width="10.9298428" height="10.9298428"></rect>
                    <rect id="Rectangle-4" stroke="none" fill="#0f73ef" fill-rule="evenodd" transform="translate(183.465221, 268.465221) rotate(-360.000000) translate(-183.465221, -268.465221) " x="180.00015" y="265.00015" width="6.93014285" height="6.93014285"></rect>
                    <rect id="Rectangle-4" stroke="none" fill="#0f73ef" fill-rule="evenodd" transform="translate(203.465071, 260.465071) rotate(-300.000000) translate(-203.465071, -260.465071) " x="196.835599" y="253.835599" width="13.2589451" height="13.2589451"></rect>
                    <rect id="Rectangle-4" stroke="none" fill="#0f73ef" fill-rule="evenodd" transform="translate(536.777912, 306.777912) rotate(-330.000000) translate(-536.777912, -306.777912) " x="528.155882" y="298.155882" width="17.2440607" height="17.2440607"></rect>
                    <rect id="Rectangle-4" stroke="none" fill="#0f73ef" fill-rule="evenodd" transform="translate(392.777912, 336.777912) rotate(-300.000000) translate(-392.777912, -336.777912) " x="384.155882" y="328.155882" width="17.2440607" height="17.2440607"></rect>
                    <rect id="Rectangle-4" stroke="none" fill="#0f73ef" fill-rule="evenodd" opacity="0.699999988" transform="translate(345.090239, 158.090239) rotate(-300.000000) translate(-345.090239, -158.090239) " x="341.363926" y="154.363926" width="7.45262779" height="7.45262779"></rect>
                    <rect id="Rectangle-4" stroke="none" fill="#0f73ef" fill-rule="evenodd" opacity="0.699999988" transform="translate(223.090239, 220.090239) rotate(-345.000000) translate(-223.090239, -220.090239) " x="219.363926" y="216.363926" width="7.45262779" height="7.45262779"></rect>
                    <rect id="Rectangle-4" stroke="none" fill="#0f73ef" fill-rule="evenodd" opacity="0.699999988" transform="translate(182.677941, 163.343174) rotate(-345.000000) translate(-182.677941, -163.343174) " x="177.225425" y="157.890658" width="10.9050324" height="10.9050324"></rect>
                    <rect id="Rectangle-4" stroke="none" fill="#0f73ef" fill-rule="evenodd" transform="translate(385.677941, 274.677941) rotate(-315.000000) translate(-385.677941, -274.677941) " x="383.532966" y="272.532966" width="4.28994959" height="4.28994959"></rect>
                    <rect id="Rectangle-4" stroke="none" fill="#0f73ef" fill-rule="evenodd" transform="translate(143.033452, 272.050179) rotate(-315.000000) translate(-143.033452, -272.050179) " x="138.778985" y="267.795711" width="8.50893583" height="8.50893583"></rect>
                    <rect id="Rectangle-4" stroke="none" fill="#0f73ef" fill-rule="evenodd" transform="translate(149.016726, 300.016726) rotate(-348.000000) translate(-149.016726, -300.016726) " x="146.956301" y="297.956301" width="4.12085021" height="4.12085021"></rect>
                    <rect id="Rectangle-4" stroke="none" fill="#0f73ef" fill-rule="evenodd" transform="translate(128.797757, 332.797757) rotate(-348.000000) translate(-128.797757, -332.797757) " x="122.223248" y="326.223248" width="13.1490177" height="13.1490177"></rect>
                    <rect id="Rectangle-4" stroke="none" fill="#0f73ef" fill-rule="evenodd" transform="translate(125.797757, 292.797757) rotate(-348.000000) translate(-125.797757, -292.797757) " x="119.223248" y="286.223248" width="13.1490177" height="13.1490177"></rect>
                    <rect id="Rectangle-4" stroke="none" fill="#0f73ef" fill-rule="evenodd" opacity="0.699999988" transform="translate(335.797757, 83.797757) rotate(-348.000000) translate(-335.797757, -83.797757) " x="332.661641" y="80.6616406" width="6.27223342" height="6.27223342"></rect>
                    <rect id="Rectangle-4" stroke="none" fill="#0f73ef" fill-rule="evenodd" opacity="0.300000012" transform="translate(598.719620, 117.719620) rotate(-348.000000) translate(-598.719620, -117.719620) " x="596.4586" y="115.4586" width="4.52204092" height="4.52204092"></rect>
                    <rect id="Rectangle-4" stroke="none" fill="#0f73ef" fill-rule="evenodd" opacity="0.699999988" transform="translate(647.377873, 139.141699) rotate(-15.000000) translate(-647.377873, -139.141699) " x="644.529893" y="136.293719" width="5.69596053" height="5.69596053"></rect>
                    <rect id="Rectangle-4" stroke="none" fill="#0f73ef" fill-rule="evenodd" opacity="0.699999988" transform="translate(726.488049, 123.488049) rotate(-30.000000) translate(-726.488049, -123.488049) " x="723.640069" y="120.640069" width="5.69596053" height="5.69596053"></rect>
                    <rect id="Rectangle-4" stroke="none" fill="#0f73ef" fill-rule="evenodd" opacity="0.699999988" transform="translate(815.890413, 127.890413) rotate(-30.000000) translate(-815.890413, -127.890413) " x="813.042433" y="125.042433" width="5.69596053" height="5.69596053"></rect>
                    <rect id="Rectangle-4" stroke="none" fill="#0f73ef" fill-rule="evenodd" opacity="0.699999988" transform="translate(757.890413, 117.890413) rotate(-30.000000) translate(-757.890413, -117.890413) " x="755.925247" y="115.925247" width="3.93033298" height="3.93033298"></rect>
                    <rect id="Rectangle-4" stroke="none" fill="#0f73ef" fill-rule="evenodd" opacity="0.300000012" transform="translate(805.824817, 87.824817) rotate(-90.000000) translate(-805.824817, -87.824817) " x="804" y="86" width="3.64963384" height="3.64963384"></rect>
                    <rect id="Rectangle-4" stroke="none" fill="#0f73ef" fill-rule="evenodd" opacity="0.699999988" transform="translate(855.824817, 127.824817) rotate(-90.000000) translate(-855.824817, -127.824817) " x="854" y="126" width="3.64963384" height="3.64963384"></rect>
                    <rect id="Rectangle-4" stroke="none" fill="#0f73ef" fill-rule="evenodd" transform="translate(954.824817, 158.824817) rotate(-75.000000) translate(-954.824817, -158.824817) " x="953" y="157" width="3.64963384" height="3.64963384"></rect>
                    <rect id="Rectangle-4" stroke="none" fill="#0f73ef" fill-rule="evenodd" transform="translate(1054.824817, 162.824817) rotate(-120.000000) translate(-1054.824817, -162.824817) " x="1053" y="161" width="3.64963384" height="3.64963384"></rect>
                    <rect id="Rectangle-4" stroke="none" fill="#0f73ef" fill-rule="evenodd" transform="translate(143.016726, 348.016726) rotate(-315.000000) translate(-143.016726, -348.016726) " x="138.762258" y="343.762258" width="8.50893583" height="8.50893583"></rect>
                    <rect id="Rectangle-4" stroke="none" fill="#0f73ef" fill-rule="evenodd" transform="translate(299.016726, 343.016726) rotate(-315.000000) translate(-299.016726, -343.016726) " x="294.762258" y="338.762258" width="8.50893583" height="8.50893583"></rect>
                    <rect id="Rectangle-4" stroke="none" fill="#0f73ef" fill-rule="evenodd" transform="translate(248.016726, 332.525089) rotate(-315.000000) translate(-248.016726, -332.525089) " x="240.586191" y="325.094555" width="14.8610696" height="14.8610696"></rect>
                    <rect id="Rectangle-4" stroke="none" fill="#0f73ef" fill-rule="evenodd" transform="translate(437.508363, 200.508363) rotate(-286.000000) translate(-437.508363, -200.508363) " x="435.744034" y="198.744034" width="3.52865754" height="3.52865754"></rect>
                </g>
            </g>
            <g id="Group-2" mask="url(#mask-2)">
                <g transform="translate(514.000000, -45.000000)">
                    <rect id="Rectangle-4" stroke="none" fill="#0f73ef" fill-rule="evenodd" transform="translate(199.500000, 318.500000) rotate(-315.000000) translate(-199.500000, -318.500000) " x="183" y="302" width="33" height="33"></rect>
                    <polyline id="Line" stroke="#0f73ef" stroke-width="1" fill="none" opacity="0.149999991" stroke-linecap="square" points="202.5 317.5 287.5 284.5 202.5 260 183 268 201 317.5 129 332 143 347 149 300 125 293 144 272 181 269 192 235 224 219 204 258 285 239 287.5 281 370 274 336 309 299 343 247.5 332 287.5 287 298 340 395 336 371 276 374 242 341 248 367 273 386 275 441 249 438 200 350 190 283 204 226 218 183 164 247.5 170 225 221 282 277 343 246 350 193 345 157 401 123 441 118 447 150 401 125 437 199 376 240 443 250 494 189 499 260 446 252 503 301 501 262 521 232.5 536 307 506 302 568 272 560 220 523 232.5 543 146 559 217 491 188 448 151 547 147 618 216 604 262 570 272 592 307 616 305 602 260 647 139 598 118 546 114 545 144 600 117 727 123 759 118 716 181 648 140 856 125 806 88 830 188 721 181 956 160 856 129 1055 164 1027 184 839 178 759 117 806 88"></polyline>
                    <rect id="Rectangle-4" stroke="none" fill="#0f73ef" fill-rule="evenodd" x="266.332738" y="263" width="39.1703102" height="39.1703102"></rect>
                    <rect id="Rectangle-4" stroke="none" fill="#0f73ef" fill-rule="evenodd" transform="translate(94.628073, 371.372077) rotate(-330.000000) translate(-94.628073, -371.372077) " x="25.542918" y="302.286922" width="138.17031" height="138.17031"></rect>
                    <rect id="Rectangle-4" stroke="none" fill="#0f73ef" fill-rule="evenodd" transform="translate(264.858822, 378.858822) rotate(-300.000000) translate(-264.858822, -378.858822) " x="223.967326" y="337.967326" width="81.7829909" height="81.7829909"></rect>
                    <rect id="Rectangle-4" stroke="none" fill="#0f73ef" fill-rule="evenodd" transform="translate(384.455046, 376.293159) rotate(-255.000000) translate(-384.455046, -376.293159) " x="301.749528" y="293.587641" width="165.411036" height="165.411036"></rect>
                    <rect id="Rectangle-4" stroke="none" fill="#0f73ef" fill-rule="evenodd" transform="translate(499.835199, 426.293159) rotate(-285.000000) translate(-499.835199, -426.293159) " x="417.129681" y="343.587641" width="165.411036" height="165.411036"></rect>
                    <rect id="Rectangle-4" stroke="none" fill="#0f73ef" fill-rule="evenodd" transform="translate(604.138208, 360.138208) rotate(-240.000000) translate(-604.138208, -360.138208) " x="565.23834" y="321.23834" width="77.7997365" height="77.7997365"></rect>
                    <rect id="Rectangle-4" stroke="none" fill="#0f73ef" fill-rule="evenodd" transform="translate(498.337858, 260.337858) rotate(-330.000000) translate(-498.337858, -260.337858) " x="491.502071" y="253.502071" width="13.6715729" height="13.6715729"></rect>
                    <rect id="Rectangle-4" stroke="none" fill="#0f73ef" fill-rule="evenodd" transform="translate(283.161887, 203.992704) rotate(-330.000000) translate(-283.161887, -203.992704) " x="280.847225" y="201.678042" width="4.629324" height="4.629324"></rect>
                    <rect id="Rectangle-4" stroke="none" fill="#0f73ef" fill-rule="evenodd" transform="translate(335.627985, 309.501098) rotate(-330.000000) translate(-335.627985, -309.501098) " x="331.508014" y="305.381127" width="8.2399422" height="8.2399422"></rect>
                    <rect id="Rectangle-4" stroke="none" fill="#0f73ef" fill-rule="evenodd" transform="translate(335.627985, 309.501098) rotate(-330.000000) translate(-335.627985, -309.501098) " x="331.508014" y="305.381127" width="8.2399422" height="8.2399422"></rect>
                    <rect id="Rectangle-4" stroke="none" fill="#0f73ef" fill-rule="evenodd" transform="translate(341.627985, 247.627985) rotate(-330.000000) translate(-341.627985, -247.627985) " x="337.508014" y="243.508014" width="8.2399422" height="8.2399422"></rect>
                    <rect id="Rectangle-4" stroke="none" fill="#0f73ef" fill-rule="evenodd" opacity="0.699999988" transform="translate(543.016060, 146.900982) rotate(-285.000000) translate(-543.016060, -146.900982) " x="535.518841" y="139.403764" width="14.9944365" height="14.9944365"></rect>
                    <rect id="Rectangle-4" stroke="none" fill="#0f73ef" fill-rule="evenodd" transform="translate(493.182180, 189.182180) rotate(-285.000000) translate(-493.182180, -189.182180) " x="489.00313" y="185.00313" width="8.35809824" height="8.35809824"></rect>
                    <rect id="Rectangle-4" stroke="none" fill="#0f73ef" fill-rule="evenodd" opacity="0.800000012" transform="translate(560.567671, 223.189433) rotate(-330.000000) translate(-560.567671, -223.189433) " x="544.323878" y="206.945641" width="32.4875854" height="32.4875854"></rect>
                    <rect id="Rectangle-4" stroke="none" fill="#0f73ef" fill-rule="evenodd" transform="translate(502.835199, 299.835199) rotate(-285.000000) translate(-502.835199, -299.835199) " x="490.72231" y="287.72231" width="24.2257787" height="24.2257787"></rect>
                    <rect id="Rectangle-4" stroke="none" fill="#0f73ef" fill-rule="evenodd" x="516.776348" y="229.776348" width="7.37011201" height="7.37011201"></rect>
                    <rect id="Rectangle-4" stroke="none" fill="#0f73ef" fill-rule="evenodd" x="599" y="257" width="8.37011201" height="8.37011201"></rect>
                    <rect id="Rectangle-4" stroke="none" fill="#0f73ef" fill-rule="evenodd" transform="translate(618.180994, 216.180994) rotate(-330.000000) translate(-618.180994, -216.180994) " x="609.995938" y="207.995938" width="16.370112" height="16.370112"></rect>
                    <rect id="Rectangle-4" stroke="none" fill="#0f73ef" fill-rule="evenodd" transform="translate(618.180994, 307.180994) rotate(-330.000000) translate(-618.180994, -307.180994) " x="609.995938" y="298.995938" width="16.370112" height="16.370112"></rect>
                    <rect id="Rectangle-4" stroke="none" fill="#0f73ef" fill-rule="evenodd" transform="translate(568.093278, 272.093278) rotate(-330.000000) translate(-568.093278, -272.093278) " x="562.900638" y="266.900638" width="10.3852792" height="10.3852792"></rect>
                    <rect id="Rectangle-4" stroke="none" fill="#0f73ef" fill-rule="evenodd" transform="translate(591.249693, 307.249693) rotate(-330.000000) translate(-591.249693, -307.249693) " x="585.942549" y="301.942549" width="10.6142878" height="10.6142878"></rect>
                    <rect id="Rectangle-4" stroke="none" fill="#0f73ef" fill-rule="evenodd" transform="translate(440.956822, 250.956822) rotate(-15.000000) translate(-440.956822, -250.956822) " x="425.478642" y="235.478642" width="30.9563605" height="30.9563605"></rect>
                    <rect id="Rectangle-4" stroke="none" fill="#0f73ef" fill-rule="evenodd" transform="translate(368.277927, 274.277927) rotate(-315.000000) translate(-368.277927, -274.277927) " x="361.717442" y="267.717442" width="13.1209699" height="13.1209699"></rect>
                    <rect id="Rectangle-4" stroke="none" fill="#0f73ef" fill-rule="evenodd" transform="translate(373.277927, 242.277927) rotate(-270.000000) translate(-373.277927, -242.277927) " x="369.358721" y="238.358721" width="7.83841169" height="7.83841169"></rect>
                    <rect id="Rectangle-4" stroke="none" fill="#0f73ef" fill-rule="evenodd" opacity="0.800000012" transform="translate(349.919206, 189.919206) rotate(-270.000000) translate(-349.919206, -189.919206) " x="343" y="183" width="13.8384117" height="13.8384117"></rect>
                    <rect id="Rectangle-4" stroke="none" fill="#0f73ef" fill-rule="evenodd" opacity="0.699999988" transform="translate(400.919206, 123.919206) rotate(-300.000000) translate(-400.919206, -123.919206) " x="396.715748" y="119.715748" width="8.40691519" height="8.40691519"></rect>
                    <rect id="Rectangle-4" stroke="none" fill="#0f73ef" fill-rule="evenodd" opacity="0.699999988" transform="translate(440.742030, 117.742030) rotate(-300.000000) translate(-440.742030, -117.742030) " x="438.383485" y="115.383485" width="4.71708923" height="4.71708923"></rect>
                    <rect id="Rectangle-4" stroke="none" fill="#0f73ef" fill-rule="evenodd" opacity="0.699999988" transform="translate(447.221832, 150.221832) rotate(-300.000000) translate(-447.221832, -150.221832) " x="444.863287" y="147.863287" width="4.71708923" height="4.71708923"></rect>
                    <rect id="Rectangle-4" stroke="none" fill="#0f73ef" fill-rule="evenodd" opacity="0.300000012" transform="translate(546.221832, 114.221832) rotate(-339.000000) translate(-546.221832, -114.221832) " x="543.863287" y="111.863287" width="4.71708923" height="4.71708923"></rect>
                    <rect id="Rectangle-4" stroke="none" fill="#0f73ef" fill-rule="evenodd" opacity="0.300000012" transform="translate(481.047118, 51.047118) rotate(-339.000000) translate(-481.047118, -51.047118) " x="478.688573" y="48.6885733" width="4.71708923" height="4.71708923"></rect>
                    <rect id="Rectangle-4" stroke="none" fill="#0f73ef" fill-rule="evenodd" opacity="0.300000012" transform="translate(185.702982, 133.702982) rotate(-341.000000) translate(-185.702982, -133.702982) " x="182.992211" y="130.992211" width="5.42154206" height="5.42154206"></rect>
                    <rect id="Rectangle-4" stroke="none" fill="#0f73ef" fill-rule="evenodd" opacity="0.699999988" transform="translate(248.445625, 170.445625) rotate(-341.000000) translate(-248.445625, -170.445625) " x="245.68313" y="167.68313" width="5.52499036" height="5.52499036"></rect>
                    <rect id="Rectangle-4" stroke="none" fill="#0f73ef" fill-rule="evenodd" opacity="0.300000012" transform="translate(251.511371, 129.511371) rotate(-300.000000) translate(-251.511371, -129.511371) " x="249.847838" y="127.847838" width="3.32706631" height="3.32706631"></rect>
                    <rect id="Rectangle-4" stroke="none" fill="#0f73ef" fill-rule="evenodd" opacity="0.699999988" transform="translate(191.272429, 235.272429) rotate(-300.000000) translate(-191.272429, -235.272429) " x="185.807507" y="229.807507" width="10.9298428" height="10.9298428"></rect>
                    <rect id="Rectangle-4" stroke="none" fill="#0f73ef" fill-rule="evenodd" transform="translate(284.940743, 240.465221) rotate(-300.000000) translate(-284.940743, -240.465221) " x="279.475821" y="235.0003" width="10.9298428" height="10.9298428"></rect>
                    <rect id="Rectangle-4" stroke="none" fill="#0f73ef" fill-rule="evenodd" transform="translate(183.465221, 268.465221) rotate(-360.000000) translate(-183.465221, -268.465221) " x="180.00015" y="265.00015" width="6.93014285" height="6.93014285"></rect>
                    <rect id="Rectangle-4" stroke="none" fill="#0f73ef" fill-rule="evenodd" transform="translate(203.465071, 260.465071) rotate(-300.000000) translate(-203.465071, -260.465071) " x="196.835599" y="253.835599" width="13.2589451" height="13.2589451"></rect>
                    <rect id="Rectangle-4" stroke="none" fill="#0f73ef" fill-rule="evenodd" transform="translate(536.777912, 306.777912) rotate(-330.000000) translate(-536.777912, -306.777912) " x="528.155882" y="298.155882" width="17.2440607" height="17.2440607"></rect>
                    <rect id="Rectangle-4" stroke="none" fill="#0f73ef" fill-rule="evenodd" transform="translate(392.777912, 336.777912) rotate(-300.000000) translate(-392.777912, -336.777912) " x="384.155882" y="328.155882" width="17.2440607" height="17.2440607"></rect>
                    <rect id="Rectangle-4" stroke="none" fill="#0f73ef" fill-rule="evenodd" opacity="0.699999988" transform="translate(345.090239, 158.090239) rotate(-300.000000) translate(-345.090239, -158.090239) " x="341.363926" y="154.363926" width="7.45262779" height="7.45262779"></rect>
                    <rect id="Rectangle-4" stroke="none" fill="#0f73ef" fill-rule="evenodd" opacity="0.699999988" transform="translate(223.090239, 220.090239) rotate(-345.000000) translate(-223.090239, -220.090239) " x="219.363926" y="216.363926" width="7.45262779" height="7.45262779"></rect>
                    <rect id="Rectangle-4" stroke="none" fill="#0f73ef" fill-rule="evenodd" opacity="0.699999988" transform="translate(182.677941, 163.343174) rotate(-345.000000) translate(-182.677941, -163.343174) " x="177.225425" y="157.890658" width="10.9050324" height="10.9050324"></rect>
                    <rect id="Rectangle-4" stroke="none" fill="#0f73ef" fill-rule="evenodd" transform="translate(385.677941, 274.677941) rotate(-315.000000) translate(-385.677941, -274.677941) " x="383.532966" y="272.532966" width="4.28994959" height="4.28994959"></rect>
                    <rect id="Rectangle-4" stroke="none" fill="#0f73ef" fill-rule="evenodd" transform="translate(143.033452, 272.050179) rotate(-315.000000) translate(-143.033452, -272.050179) " x="138.778985" y="267.795711" width="8.50893583" height="8.50893583"></rect>
                    <rect id="Rectangle-4" stroke="none" fill="#0f73ef" fill-rule="evenodd" transform="translate(149.016726, 300.016726) rotate(-348.000000) translate(-149.016726, -300.016726) " x="146.956301" y="297.956301" width="4.12085021" height="4.12085021"></rect>
                    <rect id="Rectangle-4" stroke="none" fill="#0f73ef" fill-rule="evenodd" transform="translate(128.797757, 332.797757) rotate(-348.000000) translate(-128.797757, -332.797757) " x="122.223248" y="326.223248" width="13.1490177" height="13.1490177"></rect>
                    <rect id="Rectangle-4" stroke="none" fill="#0f73ef" fill-rule="evenodd" transform="translate(125.797757, 292.797757) rotate(-348.000000) translate(-125.797757, -292.797757) " x="119.223248" y="286.223248" width="13.1490177" height="13.1490177"></rect>
                    <rect id="Rectangle-4" stroke="none" fill="#0f73ef" fill-rule="evenodd" opacity="0.699999988" transform="translate(335.797757, 83.797757) rotate(-348.000000) translate(-335.797757, -83.797757) " x="332.661641" y="80.6616406" width="6.27223342" height="6.27223342"></rect>
                    <rect id="Rectangle-4" stroke="none" fill="#0f73ef" fill-rule="evenodd" opacity="0.300000012" transform="translate(598.719620, 117.719620) rotate(-348.000000) translate(-598.719620, -117.719620) " x="596.4586" y="115.4586" width="4.52204092" height="4.52204092"></rect>
                    <rect id="Rectangle-4" stroke="none" fill="#0f73ef" fill-rule="evenodd" opacity="0.300000012" transform="translate(586.681704, 77.681704) rotate(-348.000000) translate(-586.681704, -77.681704) " x="584.97679" y="75.97679" width="3.40982869" height="3.40982869"></rect>
                    <rect id="Rectangle-4" stroke="none" fill="#0f73ef" fill-rule="evenodd" opacity="0.699999988" transform="translate(647.377873, 139.141699) rotate(-15.000000) translate(-647.377873, -139.141699) " x="644.529893" y="136.293719" width="5.69596053" height="5.69596053"></rect>
                    <rect id="Rectangle-4" stroke="none" fill="#0f73ef" fill-rule="evenodd" opacity="0.699999988" transform="translate(726.488049, 123.488049) rotate(-30.000000) translate(-726.488049, -123.488049) " x="723.640069" y="120.640069" width="5.69596053" height="5.69596053"></rect>
                    <rect id="Rectangle-4" stroke="none" fill="#0f73ef" fill-rule="evenodd" opacity="0.699999988" transform="translate(815.890413, 127.890413) rotate(-30.000000) translate(-815.890413, -127.890413) " x="813.042433" y="125.042433" width="5.69596053" height="5.69596053"></rect>
                    <rect id="Rectangle-4" stroke="none" fill="#0f73ef" fill-rule="evenodd" opacity="0.699999988" transform="translate(757.890413, 117.890413) rotate(-30.000000) translate(-757.890413, -117.890413) " x="755.925247" y="115.925247" width="3.93033298" height="3.93033298"></rect>
                    <rect id="Rectangle-4" stroke="none" fill="#0f73ef" fill-rule="evenodd" opacity="0.300000012" transform="translate(805.824817, 87.824817) rotate(-90.000000) translate(-805.824817, -87.824817) " x="804" y="86" width="3.64963384" height="3.64963384"></rect>
                    <rect id="Rectangle-4" stroke="none" fill="#0f73ef" fill-rule="evenodd" opacity="0.699999988" transform="translate(855.824817, 127.824817) rotate(-90.000000) translate(-855.824817, -127.824817) " x="854" y="126" width="3.64963384" height="3.64963384"></rect>
                    <rect id="Rectangle-4" stroke="none" fill="#0f73ef" fill-rule="evenodd" transform="translate(954.824817, 158.824817) rotate(-75.000000) translate(-954.824817, -158.824817) " x="953" y="157" width="3.64963384" height="3.64963384"></rect>
                    <rect id="Rectangle-4" stroke="none" fill="#0f73ef" fill-rule="evenodd" transform="translate(1054.824817, 162.824817) rotate(-120.000000) translate(-1054.824817, -162.824817) " x="1053" y="161" width="3.64963384" height="3.64963384"></rect>
                    <rect id="Rectangle-4" stroke="none" fill="#0f73ef" fill-rule="evenodd" transform="translate(143.016726, 348.016726) rotate(-315.000000) translate(-143.016726, -348.016726) " x="138.762258" y="343.762258" width="8.50893583" height="8.50893583"></rect>
                    <rect id="Rectangle-4" stroke="none" fill="#0f73ef" fill-rule="evenodd" transform="translate(299.016726, 343.016726) rotate(-315.000000) translate(-299.016726, -343.016726) " x="294.762258" y="338.762258" width="8.50893583" height="8.50893583"></rect>
                    <rect id="Rectangle-4" stroke="none" fill="#0f73ef" fill-rule="evenodd" transform="translate(248.016726, 332.525089) rotate(-315.000000) translate(-248.016726, -332.525089) " x="240.586191" y="325.094555" width="14.8610696" height="14.8610696"></rect>
                    <rect id="Rectangle-4" stroke="none" fill="#0f73ef" fill-rule="evenodd" transform="translate(437.508363, 200.508363) rotate(-286.000000) translate(-437.508363, -200.508363) " x="435.744034" y="198.744034" width="3.52865754" height="3.52865754"></rect>
                </g>
            </g>
            <g id="Group-2" mask="url(#mask-2)">
                <g transform="translate(1259.000000, 244.000000) scale(-1, 1) translate(-1259.000000, -244.000000) translate(730.000000, -20.000000)">
                    <rect id="Rectangle-4" stroke="none" fill="#0f73ef" fill-rule="evenodd" transform="translate(199.500000, 318.500000) rotate(-315.000000) translate(-199.500000, -318.500000) " x="183" y="302" width="33" height="33"></rect>
                    <polyline id="Line" stroke="#0f73ef" stroke-width="1" fill="none" opacity="0.300000012" stroke-linecap="square" points="202.5 317.5 287.5 284.5 202.5 260 183 268 201 317.5 129 332 143 347 149 300 125 293 144 272 181 269 192 235 224 219 204 258 285 239 287.5 281 370 274 336 309 299 343 247.5 332 287.5 287 298 340 395 336 371 276 374 242 341 248 367 273 386 275 441 249 438 200 350 190 283 204 226 218 183 164 247.5 170 225 221 282 277 343 246 350 193 345 157 401 123 441 118 447 150 401 125 437 199 376 240 443 250 494 189 499 260 446 252 503 301 501 262 521 232.5 536 307 506 302 568 272 560 220 523 232.5 543 146 559 217 491 188 448 151 547 147 618 216 604 262 570 272 592 307 616 305 602 260 647 139 598 118 546 114 545 144 600 117 727 123 759 118 716 181 648 140 856 125 806 88 830 188 721 181 956 160 856 129 1055 164 1027 184 839 178 759 117 806 88"></polyline>
                    <rect id="Rectangle-4" stroke="none" fill="#0f73ef" fill-rule="evenodd" x="266.332738" y="263" width="39.1703102" height="39.1703102"></rect>
                    <rect id="Rectangle-4" stroke="none" fill="#0f73ef" fill-rule="evenodd" transform="translate(94.628073, 371.372077) rotate(-330.000000) translate(-94.628073, -371.372077) " x="25.542918" y="302.286922" width="138.17031" height="138.17031"></rect>
                    <rect id="Rectangle-4" stroke="none" fill="#0f73ef" fill-rule="evenodd" transform="translate(264.858822, 378.858822) rotate(-300.000000) translate(-264.858822, -378.858822) " x="223.967326" y="337.967326" width="81.7829909" height="81.7829909"></rect>
                    <rect id="Rectangle-4" stroke="none" fill="#0f73ef" fill-rule="evenodd" transform="translate(384.455046, 376.293159) rotate(-255.000000) translate(-384.455046, -376.293159) " x="301.749528" y="293.587641" width="165.411036" height="165.411036"></rect>
                    <rect id="Rectangle-4" stroke="none" fill="#0f73ef" fill-rule="evenodd" transform="translate(499.835199, 426.293159) rotate(-285.000000) translate(-499.835199, -426.293159) " x="417.129681" y="343.587641" width="165.411036" height="165.411036"></rect>
                    <rect id="Rectangle-4" stroke="none" fill="#0f73ef" fill-rule="evenodd" transform="translate(604.138208, 360.138208) rotate(-240.000000) translate(-604.138208, -360.138208) " x="565.23834" y="321.23834" width="77.7997365" height="77.7997365"></rect>
                    <rect id="Rectangle-4" stroke="none" fill="#0f73ef" fill-rule="evenodd" transform="translate(498.337858, 260.337858) rotate(-330.000000) translate(-498.337858, -260.337858) " x="491.502071" y="253.502071" width="13.6715729" height="13.6715729"></rect>
                    <rect id="Rectangle-4" stroke="none" fill="#0f73ef" fill-rule="evenodd" transform="translate(283.161887, 203.992704) rotate(-330.000000) translate(-283.161887, -203.992704) " x="280.847225" y="201.678042" width="4.629324" height="4.629324"></rect>
                    <rect id="Rectangle-4" stroke="none" fill="#0f73ef" fill-rule="evenodd" transform="translate(335.627985, 309.501098) rotate(-330.000000) translate(-335.627985, -309.501098) " x="331.508014" y="305.381127" width="8.2399422" height="8.2399422"></rect>
                    <rect id="Rectangle-4" stroke="none" fill="#0f73ef" fill-rule="evenodd" transform="translate(335.627985, 309.501098) rotate(-330.000000) translate(-335.627985, -309.501098) " x="331.508014" y="305.381127" width="8.2399422" height="8.2399422"></rect>
                    <rect id="Rectangle-4" stroke="none" fill="#0f73ef" fill-rule="evenodd" transform="translate(341.627985, 247.627985) rotate(-330.000000) translate(-341.627985, -247.627985) " x="337.508014" y="243.508014" width="8.2399422" height="8.2399422"></rect>
                    <rect id="Rectangle-4" stroke="none" fill="#0f73ef" fill-rule="evenodd" opacity="0.699999988" transform="translate(543.016060, 146.900982) rotate(-285.000000) translate(-543.016060, -146.900982) " x="535.518841" y="139.403764" width="14.9944365" height="14.9944365"></rect>
                    <rect id="Rectangle-4" stroke="none" fill="#0f73ef" fill-rule="evenodd" transform="translate(493.182180, 189.182180) rotate(-285.000000) translate(-493.182180, -189.182180) " x="489.00313" y="185.00313" width="8.35809824" height="8.35809824"></rect>
                    <rect id="Rectangle-4" stroke="none" fill="#0f73ef" fill-rule="evenodd" opacity="0.800000012" transform="translate(560.567671, 223.189433) rotate(-330.000000) translate(-560.567671, -223.189433) " x="544.323878" y="206.945641" width="32.4875854" height="32.4875854"></rect>
                    <rect id="Rectangle-4" stroke="none" fill="#0f73ef" fill-rule="evenodd" transform="translate(502.835199, 299.835199) rotate(-285.000000) translate(-502.835199, -299.835199) " x="490.72231" y="287.72231" width="24.2257787" height="24.2257787"></rect>
                    <rect id="Rectangle-4" stroke="none" fill="#0f73ef" fill-rule="evenodd" x="516.776348" y="229.776348" width="7.37011201" height="7.37011201"></rect>
                    <rect id="Rectangle-4" stroke="none" fill="#0f73ef" fill-rule="evenodd" x="599" y="257" width="8.37011201" height="8.37011201"></rect>
                    <rect id="Rectangle-4" stroke="none" fill="#0f73ef" fill-rule="evenodd" transform="translate(618.180994, 216.180994) rotate(-330.000000) translate(-618.180994, -216.180994) " x="609.995938" y="207.995938" width="16.370112" height="16.370112"></rect>
                    <rect id="Rectangle-4" stroke="none" fill="#0f73ef" fill-rule="evenodd" transform="translate(618.180994, 307.180994) rotate(-330.000000) translate(-618.180994, -307.180994) " x="609.995938" y="298.995938" width="16.370112" height="16.370112"></rect>
                    <rect id="Rectangle-4" stroke="none" fill="#0f73ef" fill-rule="evenodd" transform="translate(568.093278, 272.093278) rotate(-330.000000) translate(-568.093278, -272.093278) " x="562.900638" y="266.900638" width="10.3852792" height="10.3852792"></rect>
                    <rect id="Rectangle-4" stroke="none" fill="#0f73ef" fill-rule="evenodd" transform="translate(591.249693, 307.249693) rotate(-330.000000) translate(-591.249693, -307.249693) " x="585.942549" y="301.942549" width="10.6142878" height="10.6142878"></rect>
                    <rect id="Rectangle-4" stroke="none" fill="#0f73ef" fill-rule="evenodd" transform="translate(440.956822, 250.956822) rotate(-15.000000) translate(-440.956822, -250.956822) " x="425.478642" y="235.478642" width="30.9563605" height="30.9563605"></rect>
                    <rect id="Rectangle-4" stroke="none" fill="#0f73ef" fill-rule="evenodd" transform="translate(368.277927, 274.277927) rotate(-315.000000) translate(-368.277927, -274.277927) " x="361.717442" y="267.717442" width="13.1209699" height="13.1209699"></rect>
                    <rect id="Rectangle-4" stroke="none" fill="#0f73ef" fill-rule="evenodd" transform="translate(373.277927, 242.277927) rotate(-270.000000) translate(-373.277927, -242.277927) " x="369.358721" y="238.358721" width="7.83841169" height="7.83841169"></rect>
                    <rect id="Rectangle-4" stroke="none" fill="#0f73ef" fill-rule="evenodd" opacity="0.800000012" transform="translate(349.919206, 189.919206) rotate(-270.000000) translate(-349.919206, -189.919206) " x="343" y="183" width="13.8384117" height="13.8384117"></rect>
                    <rect id="Rectangle-4" stroke="none" fill="#0f73ef" fill-rule="evenodd" opacity="0.699999988" transform="translate(400.919206, 123.919206) rotate(-300.000000) translate(-400.919206, -123.919206) " x="396.715748" y="119.715748" width="8.40691519" height="8.40691519"></rect>
                    <rect id="Rectangle-4" stroke="none" fill="#0f73ef" fill-rule="evenodd" opacity="0.699999988" transform="translate(440.742030, 117.742030) rotate(-300.000000) translate(-440.742030, -117.742030) " x="438.383485" y="115.383485" width="4.71708923" height="4.71708923"></rect>
                    <rect id="Rectangle-4" stroke="none" fill="#0f73ef" fill-rule="evenodd" opacity="0.699999988" transform="translate(447.221832, 150.221832) rotate(-300.000000) translate(-447.221832, -150.221832) " x="444.863287" y="147.863287" width="4.71708923" height="4.71708923"></rect>
                    <rect id="Rectangle-4" stroke="none" fill="#0f73ef" fill-rule="evenodd" opacity="0.300000012" transform="translate(546.221832, 114.221832) rotate(-339.000000) translate(-546.221832, -114.221832) " x="543.863287" y="111.863287" width="4.71708923" height="4.71708923"></rect>
                    <rect id="Rectangle-4" stroke="none" fill="#0f73ef" fill-rule="evenodd" opacity="0.300000012" transform="translate(481.047118, 51.047118) rotate(-339.000000) translate(-481.047118, -51.047118) " x="478.688573" y="48.6885733" width="4.71708923" height="4.71708923"></rect>
                    <rect id="Rectangle-4" stroke="none" fill="#0f73ef" fill-rule="evenodd" opacity="0.300000012" transform="translate(288.702982, 33.350756) rotate(-300.000000) translate(-288.702982, -33.350756) " x="285.992211" y="30.6399846" width="5.42154206" height="5.42154206"></rect>
                    <rect id="Rectangle-4" stroke="none" fill="#0f73ef" fill-rule="evenodd" opacity="0.300000012" transform="translate(185.702982, 133.702982) rotate(-341.000000) translate(-185.702982, -133.702982) " x="182.992211" y="130.992211" width="5.42154206" height="5.42154206"></rect>
                    <rect id="Rectangle-4" stroke="none" fill="#0f73ef" fill-rule="evenodd" opacity="0.699999988" transform="translate(248.445625, 170.445625) rotate(-341.000000) translate(-248.445625, -170.445625) " x="245.68313" y="167.68313" width="5.52499036" height="5.52499036"></rect>
                    <rect id="Rectangle-4" stroke="none" fill="#0f73ef" fill-rule="evenodd" opacity="0.300000012" transform="translate(251.511371, 129.511371) rotate(-300.000000) translate(-251.511371, -129.511371) " x="249.847838" y="127.847838" width="3.32706631" height="3.32706631"></rect>
                    <rect id="Rectangle-4" stroke="none" fill="#0f73ef" fill-rule="evenodd" opacity="0.699999988" transform="translate(191.272429, 235.272429) rotate(-300.000000) translate(-191.272429, -235.272429) " x="185.807507" y="229.807507" width="10.9298428" height="10.9298428"></rect>
                    <rect id="Rectangle-4" stroke="none" fill="#0f73ef" fill-rule="evenodd" transform="translate(284.940743, 240.465221) rotate(-300.000000) translate(-284.940743, -240.465221) " x="279.475821" y="235.0003" width="10.9298428" height="10.9298428"></rect>
                    <rect id="Rectangle-4" stroke="none" fill="#0f73ef" fill-rule="evenodd" transform="translate(183.465221, 268.465221) rotate(-360.000000) translate(-183.465221, -268.465221) " x="180.00015" y="265.00015" width="6.93014285" height="6.93014285"></rect>
                    <rect id="Rectangle-4" stroke="none" fill="#0f73ef" fill-rule="evenodd" transform="translate(203.465071, 260.465071) rotate(-300.000000) translate(-203.465071, -260.465071) " x="196.835599" y="253.835599" width="13.2589451" height="13.2589451"></rect>
                    <rect id="Rectangle-4" stroke="none" fill="#0f73ef" fill-rule="evenodd" transform="translate(536.777912, 306.777912) rotate(-330.000000) translate(-536.777912, -306.777912) " x="528.155882" y="298.155882" width="17.2440607" height="17.2440607"></rect>
                    <rect id="Rectangle-4" stroke="none" fill="#0f73ef" fill-rule="evenodd" transform="translate(392.777912, 336.777912) rotate(-300.000000) translate(-392.777912, -336.777912) " x="384.155882" y="328.155882" width="17.2440607" height="17.2440607"></rect>
                    <rect id="Rectangle-4" stroke="none" fill="#0f73ef" fill-rule="evenodd" opacity="0.699999988" transform="translate(345.090239, 158.090239) rotate(-300.000000) translate(-345.090239, -158.090239) " x="341.363926" y="154.363926" width="7.45262779" height="7.45262779"></rect>
                    <rect id="Rectangle-4" stroke="none" fill="#0f73ef" fill-rule="evenodd" opacity="0.699999988" transform="translate(223.090239, 220.090239) rotate(-345.000000) translate(-223.090239, -220.090239) " x="219.363926" y="216.363926" width="7.45262779" height="7.45262779"></rect>
                    <rect id="Rectangle-4" stroke="none" fill="#0f73ef" fill-rule="evenodd" opacity="0.699999988" transform="translate(182.677941, 163.343174) rotate(-345.000000) translate(-182.677941, -163.343174) " x="177.225425" y="157.890658" width="10.9050324" height="10.9050324"></rect>
                    <rect id="Rectangle-4" stroke="none" fill="#0f73ef" fill-rule="evenodd" transform="translate(385.677941, 274.677941) rotate(-315.000000) translate(-385.677941, -274.677941) " x="383.532966" y="272.532966" width="4.28994959" height="4.28994959"></rect>
                    <rect id="Rectangle-4" stroke="none" fill="#0f73ef" fill-rule="evenodd" transform="translate(143.033452, 272.050179) rotate(-315.000000) translate(-143.033452, -272.050179) " x="138.778985" y="267.795711" width="8.50893583" height="8.50893583"></rect>
                    <rect id="Rectangle-4" stroke="none" fill="#0f73ef" fill-rule="evenodd" transform="translate(149.016726, 300.016726) rotate(-348.000000) translate(-149.016726, -300.016726) " x="146.956301" y="297.956301" width="4.12085021" height="4.12085021"></rect>
                    <rect id="Rectangle-4" stroke="none" fill="#0f73ef" fill-rule="evenodd" transform="translate(128.797757, 332.797757) rotate(-348.000000) translate(-128.797757, -332.797757) " x="122.223248" y="326.223248" width="13.1490177" height="13.1490177"></rect>
                    <rect id="Rectangle-4" stroke="none" fill="#0f73ef" fill-rule="evenodd" transform="translate(125.797757, 292.797757) rotate(-348.000000) translate(-125.797757, -292.797757) " x="119.223248" y="286.223248" width="13.1490177" height="13.1490177"></rect>
                    <rect id="Rectangle-4" stroke="none" fill="#0f73ef" fill-rule="evenodd" opacity="0.699999988" transform="translate(335.797757, 83.797757) rotate(-348.000000) translate(-335.797757, -83.797757) " x="332.661641" y="80.6616406" width="6.27223342" height="6.27223342"></rect>
                    <rect id="Rectangle-4" stroke="none" fill="#0f73ef" fill-rule="evenodd" opacity="0.300000012" transform="translate(598.719620, 117.719620) rotate(-348.000000) translate(-598.719620, -117.719620) " x="596.4586" y="115.4586" width="4.52204092" height="4.52204092"></rect>
                    <rect id="Rectangle-4" stroke="none" fill="#0f73ef" fill-rule="evenodd" opacity="0.300000012" transform="translate(586.681704, 77.681704) rotate(-348.000000) translate(-586.681704, -77.681704) " x="584.97679" y="75.97679" width="3.40982869" height="3.40982869"></rect>
                    <rect id="Rectangle-4" stroke="none" fill="#0f73ef" fill-rule="evenodd" opacity="0.699999988" transform="translate(647.377873, 139.141699) rotate(-15.000000) translate(-647.377873, -139.141699) " x="644.529893" y="136.293719" width="5.69596053" height="5.69596053"></rect>
                    <rect id="Rectangle-4" stroke="none" fill="#0f73ef" fill-rule="evenodd" opacity="0.699999988" transform="translate(726.488049, 123.488049) rotate(-30.000000) translate(-726.488049, -123.488049) " x="723.640069" y="120.640069" width="5.69596053" height="5.69596053"></rect>
                    <rect id="Rectangle-4" stroke="none" fill="#0f73ef" fill-rule="evenodd" opacity="0.699999988" transform="translate(815.890413, 127.890413) rotate(-30.000000) translate(-815.890413, -127.890413) " x="813.042433" y="125.042433" width="5.69596053" height="5.69596053"></rect>
                    <rect id="Rectangle-4" stroke="none" fill="#0f73ef" fill-rule="evenodd" opacity="0.699999988" transform="translate(757.890413, 117.890413) rotate(-30.000000) translate(-757.890413, -117.890413) " x="755.925247" y="115.925247" width="3.93033298" height="3.93033298"></rect>
                    <rect id="Rectangle-4" stroke="none" fill="#0f73ef" fill-rule="evenodd" opacity="0.300000012" transform="translate(805.824817, 87.824817) rotate(-90.000000) translate(-805.824817, -87.824817) " x="804" y="86" width="3.64963384" height="3.64963384"></rect>
                    <rect id="Rectangle-4" stroke="none" fill="#0f73ef" fill-rule="evenodd" opacity="0.699999988" transform="translate(855.824817, 127.824817) rotate(-90.000000) translate(-855.824817, -127.824817) " x="854" y="126" width="3.64963384" height="3.64963384"></rect>
                    <rect id="Rectangle-4" stroke="none" fill="#0f73ef" fill-rule="evenodd" transform="translate(954.824817, 158.824817) rotate(-75.000000) translate(-954.824817, -158.824817) " x="953" y="157" width="3.64963384" height="3.64963384"></rect>
                    <rect id="Rectangle-4" stroke="none" fill="#0f73ef" fill-rule="evenodd" transform="translate(1054.824817, 162.824817) rotate(-120.000000) translate(-1054.824817, -162.824817) " x="1053" y="161" width="3.64963384" height="3.64963384"></rect>
                    <rect id="Rectangle-4" stroke="none" fill="#0f73ef" fill-rule="evenodd" transform="translate(143.016726, 348.016726) rotate(-315.000000) translate(-143.016726, -348.016726) " x="138.762258" y="343.762258" width="8.50893583" height="8.50893583"></rect>
                    <rect id="Rectangle-4" stroke="none" fill="#0f73ef" fill-rule="evenodd" transform="translate(299.016726, 343.016726) rotate(-315.000000) translate(-299.016726, -343.016726) " x="294.762258" y="338.762258" width="8.50893583" height="8.50893583"></rect>
                    <rect id="Rectangle-4" stroke="none" fill="#0f73ef" fill-rule="evenodd" transform="translate(248.016726, 332.525089) rotate(-315.000000) translate(-248.016726, -332.525089) " x="240.586191" y="325.094555" width="14.8610696" height="14.8610696"></rect>
                    <rect id="Rectangle-4" stroke="none" fill="#0f73ef" fill-rule="evenodd" transform="translate(437.508363, 200.508363) rotate(-286.000000) translate(-437.508363, -200.508363) " x="435.744034" y="198.744034" width="3.52865754" height="3.52865754"></rect>
                </g>
            </g>
            <g id="Group-2" mask="url(#mask-2)">
                <g transform="translate(1604.000000, -45.000000)">
                    <rect id="Rectangle-4" stroke="none" fill="#0f73ef" fill-rule="evenodd" transform="translate(199.500000, 318.500000) rotate(-315.000000) translate(-199.500000, -318.500000) " x="183" y="302" width="33" height="33"></rect>
                    <polyline id="Line" stroke="#0f73ef" stroke-width="1" fill="none" opacity="0.300000012" stroke-linecap="square" points="202.5 317.5 287.5 284.5 202.5 260 183 268 201 317.5 129 332 143 347 149 300 125 293 144 272 181 269 192 235 224 219 204 258 285 239 287.5 281 370 274 336 309 299 343 247.5 332 287.5 287 298 340 395 336 371 276 374 242 341 248 367 273 386 275 441 249 438 200 350 190 283 204 226 218 183 164 247.5 170 225 221 282 277 343 246 350 193 345 157 401 123 441 118 447 150 401 125 437 199 376 240 443 250 494 189 499 260 446 252 503 301 501 262 521 232.5 536 307 506 302 568 272 560 220 523 232.5 543 146 559 217 491 188 448 151 547 147 618 216 604 262 570 272 592 307 616 305 602 260 647 139 598 118 546 114 545 144 600 117 727 123 759 118 716 181 648 140 856 125 806 88 830 188 721 181 956 160 856 129 1055 164 1027 184 839 178 759 117 806 88"></polyline>
                    <rect id="Rectangle-4" stroke="none" fill="#0f73ef" fill-rule="evenodd" x="266.332738" y="263" width="39.1703102" height="39.1703102"></rect>
                    <rect id="Rectangle-4" stroke="none" fill="#0f73ef" fill-rule="evenodd" transform="translate(94.628073, 371.372077) rotate(-330.000000) translate(-94.628073, -371.372077) " x="25.542918" y="302.286922" width="138.17031" height="138.17031"></rect>
                    <rect id="Rectangle-4" stroke="none" fill="#0f73ef" fill-rule="evenodd" transform="translate(264.858822, 378.858822) rotate(-300.000000) translate(-264.858822, -378.858822) " x="223.967326" y="337.967326" width="81.7829909" height="81.7829909"></rect>
                    <rect id="Rectangle-4" stroke="none" fill="#0f73ef" fill-rule="evenodd" transform="translate(384.455046, 376.293159) rotate(-255.000000) translate(-384.455046, -376.293159) " x="301.749528" y="293.587641" width="165.411036" height="165.411036"></rect>
                    <rect id="Rectangle-4" stroke="none" fill="#0f73ef" fill-rule="evenodd" transform="translate(283.161887, 203.992704) rotate(-330.000000) translate(-283.161887, -203.992704) " x="280.847225" y="201.678042" width="4.629324" height="4.629324"></rect>
                    <rect id="Rectangle-4" stroke="none" fill="#0f73ef" fill-rule="evenodd" opacity="0.300000012" transform="translate(185.702982, 133.702982) rotate(-341.000000) translate(-185.702982, -133.702982) " x="182.992211" y="130.992211" width="5.42154206" height="5.42154206"></rect>
                    <rect id="Rectangle-4" stroke="none" fill="#0f73ef" fill-rule="evenodd" opacity="0.699999988" transform="translate(248.445625, 170.445625) rotate(-341.000000) translate(-248.445625, -170.445625) " x="245.68313" y="167.68313" width="5.52499036" height="5.52499036"></rect>
                    <rect id="Rectangle-4" stroke="none" fill="#0f73ef" fill-rule="evenodd" opacity="0.300000012" transform="translate(251.511371, 129.511371) rotate(-300.000000) translate(-251.511371, -129.511371) " x="249.847838" y="127.847838" width="3.32706631" height="3.32706631"></rect>
                    <rect id="Rectangle-4" stroke="none" fill="#0f73ef" fill-rule="evenodd" opacity="0.699999988" transform="translate(191.272429, 235.272429) rotate(-300.000000) translate(-191.272429, -235.272429) " x="185.807507" y="229.807507" width="10.9298428" height="10.9298428"></rect>
                    <rect id="Rectangle-4" stroke="none" fill="#0f73ef" fill-rule="evenodd" transform="translate(284.940743, 240.465221) rotate(-300.000000) translate(-284.940743, -240.465221) " x="279.475821" y="235.0003" width="10.9298428" height="10.9298428"></rect>
                    <rect id="Rectangle-4" stroke="none" fill="#0f73ef" fill-rule="evenodd" transform="translate(183.465221, 268.465221) rotate(-360.000000) translate(-183.465221, -268.465221) " x="180.00015" y="265.00015" width="6.93014285" height="6.93014285"></rect>
                    <rect id="Rectangle-4" stroke="none" fill="#0f73ef" fill-rule="evenodd" transform="translate(203.465071, 260.465071) rotate(-300.000000) translate(-203.465071, -260.465071) " x="196.835599" y="253.835599" width="13.2589451" height="13.2589451"></rect>
                    <rect id="Rectangle-4" stroke="none" fill="#0f73ef" fill-rule="evenodd" opacity="0.699999988" transform="translate(223.090239, 220.090239) rotate(-345.000000) translate(-223.090239, -220.090239) " x="219.363926" y="216.363926" width="7.45262779" height="7.45262779"></rect>
                    <rect id="Rectangle-4" stroke="none" fill="#0f73ef" fill-rule="evenodd" opacity="0.699999988" transform="translate(182.677941, 163.343174) rotate(-345.000000) translate(-182.677941, -163.343174) " x="177.225425" y="157.890658" width="10.9050324" height="10.9050324"></rect>
                    <rect id="Rectangle-4" stroke="none" fill="#0f73ef" fill-rule="evenodd" transform="translate(143.033452, 272.050179) rotate(-315.000000) translate(-143.033452, -272.050179) " x="138.778985" y="267.795711" width="8.50893583" height="8.50893583"></rect>
                    <rect id="Rectangle-4" stroke="none" fill="#0f73ef" fill-rule="evenodd" transform="translate(149.016726, 300.016726) rotate(-348.000000) translate(-149.016726, -300.016726) " x="146.956301" y="297.956301" width="4.12085021" height="4.12085021"></rect>
                    <rect id="Rectangle-4" stroke="none" fill="#0f73ef" fill-rule="evenodd" transform="translate(128.797757, 332.797757) rotate(-348.000000) translate(-128.797757, -332.797757) " x="122.223248" y="326.223248" width="13.1490177" height="13.1490177"></rect>
                    <rect id="Rectangle-4" stroke="none" fill="#0f73ef" fill-rule="evenodd" transform="translate(125.797757, 292.797757) rotate(-348.000000) translate(-125.797757, -292.797757) " x="119.223248" y="286.223248" width="13.1490177" height="13.1490177"></rect>
                    <rect id="Rectangle-4" stroke="none" fill="#0f73ef" fill-rule="evenodd" transform="translate(143.016726, 348.016726) rotate(-315.000000) translate(-143.016726, -348.016726) " x="138.762258" y="343.762258" width="8.50893583" height="8.50893583"></rect>
                    <rect id="Rectangle-4" stroke="none" fill="#0f73ef" fill-rule="evenodd" transform="translate(299.016726, 343.016726) rotate(-315.000000) translate(-299.016726, -343.016726) " x="294.762258" y="338.762258" width="8.50893583" height="8.50893583"></rect>
                    <rect id="Rectangle-4" stroke="none" fill="#0f73ef" fill-rule="evenodd" transform="translate(248.016726, 332.525089) rotate(-315.000000) translate(-248.016726, -332.525089) " x="240.586191" y="325.094555" width="14.8610696" height="14.8610696"></rect>
                </g>
            </g>
        </g>
    </g>
</svg>